<svg version="1.1" xmlns="http://www.w3.org/2000/svg" viewBox="0 0 828.7007862469563 615.6128154997209" width="828.7007862469563" height="615.6128154997209">
  <!-- svg-source:excalidraw -->
  
  <defs>
    <style class="style-fonts">
      @font-face {
        font-family: "Virgil";
        src: url("https://excalidraw.com/Virgil.woff2");
      }
      @font-face {
        font-family: "Cascadia";
        src: url("https://excalidraw.com/Cascadia.woff2");
      }
      @font-face {
        font-family: "Assistant";
        src: url("https://excalidraw.com/Assistant-Regular.woff2");
      }
    </style>
    
  </defs>
  <rect x="0" y="0" width="828.7007862469563" height="615.6128154997209" fill="#ffffff"></rect><g stroke-linecap="round" transform="translate(10 10) rotate(0 404.35039312347817 297.80640774986045)"><path d="M0.37 1.02 C168.48 4.85, 337.23 3.85, 809.89 1.49 M809.41 -1.32 C808.96 141.6, 810.2 284.7, 808.12 595.84 M809.19 597.2 C545.75 600.6, 281.36 598.56, -0.16 595.09 M1.17 595.77 C-3.63 380.92, -5.02 164.85, 0.04 1.13" stroke="#1e1e1e" stroke-width="1.5" fill="none" stroke-dasharray="8 9"></path></g><g stroke-linecap="round" transform="translate(73.55978948578286 88.61301785728233) rotate(0 76.81552124023438 19.707077026367188)"><path d="M0 0 C0 0, 0 0, 0 0 M0 0 C0 0, 0 0, 0 0 M1.31 7.31 C0.2 5.16, 2.51 3.69, 4.86 1.93 M-0.02 6.39 C0.42 4.75, 3.2 2.71, 4.61 0.44 M-0.48 11.38 C2.35 6.54, 6.37 8.6, 9.13 -3.09 M-0.12 12.14 C3.07 9.69, 8.62 5.39, 11.1 -0.94 M2.29 16.39 C8.12 10.16, 7.84 6.69, 17.58 -2.01 M-0.13 20.21 C5.52 12.67, 11.58 6.14, 16.45 2.06 M2.74 22.27 C4.15 14.11, 8.74 13.2, 17.42 -3.99 M-0.03 22.81 C9.41 14.93, 18.44 4.97, 22.07 1.14 M2.49 29.48 C9.22 22.72, 19.2 10.3, 27.63 -0.74 M1.03 29.9 C8.17 17.86, 17.65 8.72, 28.02 -0.55 M-0.06 33.23 C8.4 30.91, 13.99 18.97, 34.5 3.04 M-1.36 38.14 C8.08 26.42, 17.31 17.94, 31.8 -0.87 M-1.87 41.46 C16.81 24.28, 23.51 13, 38.65 0.3 M1.17 39.98 C14.16 26.71, 23.71 14.85, 35.9 1.44 M8.07 41.75 C22.11 23, 30.08 14.09, 44.88 0.96 M5.1 39.44 C20.61 26.84, 29.98 12.8, 43.77 1.02 M10.73 42.23 C25.28 27.4, 30.4 18.77, 45.55 3.31 M11.17 40.01 C18.6 30.4, 29.82 20.91, 47.2 -1.74 M14.2 38.57 C26.84 24.04, 40.12 12.81, 50.48 -2.61 M17.49 40.6 C28.92 25.9, 42.95 12.29, 54.31 1.56 M21.76 41.23 C31.15 31.09, 41.02 18.37, 54.3 0.38 M21.78 41.67 C35.89 27.56, 49.01 13.9, 56.97 -0.32 M25.76 42.79 C40.89 30.24, 46.52 16.17, 66.31 -4.07 M27.23 41.52 C38.56 29.4, 48.34 17.15, 62.73 0.03 M34.98 41.32 C48.17 29.9, 60.66 11.66, 69.92 1.57 M31.96 42.61 C45.02 25.86, 60.65 12.2, 70.27 1 M36.53 39.74 C49.76 25.11, 62.18 17.55, 76.43 0.09 M38.97 39.87 C46.94 29.98, 56.44 19.84, 73.32 -1.76 M47.21 37.25 C54.75 27.99, 63.49 22.51, 76.5 -1.12 M45.59 39.03 C54.78 25.56, 66.08 12.34, 80.1 1.03 M51.36 36.64 C57.59 30.97, 71.27 17.37, 85.95 1.32 M49.36 40.87 C57.39 30.48, 64.08 23.04, 85.3 -1.48 M52.3 43.73 C64.11 26.55, 84.78 9.32, 89.19 2.21 M53.54 39.63 C65.06 30.03, 76.12 16.01, 89.45 0.13 M58.15 42.67 C76.05 29.34, 83.88 10.98, 93.07 -0.97 M61 39.24 C70.79 27.62, 84.91 11.12, 94.9 -2.23 M69.2 43.4 C75.78 25.69, 95.28 7.98, 102.23 3.44 M63.66 39.67 C74.53 32.7, 82.27 20.84, 101.25 -1.8 M71.2 41.7 C84.15 29.13, 88.01 21.46, 109.02 -3.46 M71.8 41.99 C78.38 30.33, 89.57 20.81, 105.29 1.37 M73.91 38.85 C85.23 31.01, 90.68 21.78, 108.87 -3.64 M74.75 38.93 C87.29 24.82, 103 12.15, 112.43 0.66 M81.85 41.27 C94.35 31.72, 97.87 20.78, 113.47 -2.12 M79.62 39.43 C92.43 24.62, 105.55 10.01, 115.97 2.02 M83.48 40.59 C95.98 28.68, 114.4 16.29, 121.46 -3.29 M86.58 39.71 C94.57 29.29, 104.56 21.25, 123.86 0.46 M90.55 41.11 C97.86 34.18, 109.03 23.73, 125.09 0.74 M92.3 39.62 C102.37 25.7, 117.87 13.19, 127.37 -1.32 M96.03 39.08 C113.73 27.14, 125.62 13.99, 135.41 -1.83 M97.9 40.87 C109.23 26.5, 124.68 10.19, 134.41 0.07 M105.45 42.16 C112.61 24.85, 129.41 16.98, 137.66 -2.99 M100.34 39.42 C113.51 28.83, 121.14 17.26, 138.92 -0.9 M110.76 40.72 C121.69 26.23, 132.71 10.46, 141.18 0.35 M108.41 39.76 C118.89 25.93, 130.35 12.81, 142.88 1.52 M113.75 43.27 C119.59 31.01, 132.6 18.4, 150.69 -2.21 M114.16 39.23 C122.71 28.53, 137.36 16.1, 149.68 -1.19 M115.9 39.82 C128.13 33.02, 135.94 26.74, 152.29 -3.2 M116.81 42.31 C130.45 25.31, 142.56 12.53, 154.08 0.35 M125.74 37.25 C135.04 30.24, 143.04 17.99, 151.49 4.13 M122.2 40.97 C136.22 28.96, 145.09 15.55, 154.42 5.91 M132.77 38.67 C133.89 33.68, 142.64 31.2, 150.85 15.08 M130.74 40.94 C136.18 30.08, 143.97 22.81, 154.27 11.72 M130.77 38.84 C137.32 35.95, 150.67 23.75, 153.66 14.98 M132.83 42.08 C136.45 36.19, 140.17 30.21, 152.14 18.99 M139.73 43.47 C141.78 33.1, 146.49 27.38, 154.35 21.29 M140.82 40.62 C144.86 36.82, 146.9 33.17, 152.01 24.9 M142.24 40.77 C150.27 35.88, 150.18 34.13, 153.36 30.95 M144.48 41.36 C145.33 37.42, 149.99 35.88, 152.58 29.51 M149.76 41.49 C150.91 39.36, 152.62 38.03, 152.87 36.89 M150.36 40.61 C151.1 39.05, 151.73 38.82, 153.99 37.2" stroke="#b2f2bb" stroke-width="0.5" fill="none"></path><path d="M-0.84 1.12 C61.37 -1.27, 117.14 -1.55, 152.09 -2.85 M154.32 -0.19 C149.31 15.13, 155.14 27.6, 150.93 39.65 M149.94 38.94 C100.7 43.76, 43.98 43.66, -0.04 41.16 M3.91 39.04 C-2.36 30.49, 3.3 15.57, 2.81 -1.38" stroke="#1e1e1e" stroke-width="1.5" fill="none" stroke-dasharray="8 9"></path></g><g transform="translate(108.18781072601723 98.7200948836495) rotate(0 42.1875 9.600000000000023)"><text x="42.1875" y="0" font-family="Cascadia, Segoe UI Emoji" font-size="16px" fill="#1e1e1e" text-anchor="middle" style="white-space: pre;" direction="ltr" dominant-baseline="text-before-edge">service A</text></g><g stroke-linecap="round" transform="translate(366.3642938803141 88.91709500571983) rotate(0 76.81552124023438 19.707077026367188)"><path d="M0 0 C0 0, 0 0, 0 0 M0 0 C0 0, 0 0, 0 0 M1 6.9 C2.66 5.6, 3.61 3.69, 4.43 -0.39 M0.3 6.36 C1.8 4.37, 3.38 3.28, 4.93 0.39 M-0.05 14.89 C1.65 8.34, 6.45 6.49, 9.49 -0.12 M-1.06 12.54 C4.09 8.05, 5.99 7.63, 9.17 0.15 M-1.07 18.06 C7.54 15.46, 10.81 11.58, 12.07 3.68 M-0.41 17.94 C4.26 15.06, 7.13 9.76, 14.81 0.88 M0.08 24.92 C9.73 17.59, 14.58 9.25, 23.11 -2.08 M0.82 24.55 C7.08 14.73, 13.81 9.28, 20.89 -0.35 M1.06 32.27 C3.25 22.51, 15.64 13.03, 23.26 -1.59 M0.79 32.39 C8.15 17.52, 21.24 6.38, 25.6 1.43 M-0.83 33.76 C9.78 24.45, 20.24 14.95, 34.08 -0.61 M-1.44 36.34 C9.91 27.93, 18.72 18.58, 33.47 1.49 M1.35 40.46 C15.28 22.3, 28.17 11.92, 37.86 4.19 M2.71 38.07 C15.03 26.43, 23.73 12.73, 36.18 2.15 M6.3 41.8 C15.53 28.5, 27.08 20.89, 40.27 -0.19 M6.43 41.15 C19.31 25.25, 34.02 9.07, 42.04 -0.5 M10.46 36.88 C25.08 24.58, 36.02 15.9, 46.48 3.58 M12.47 38.36 C27.29 26.25, 40.62 11.47, 49.08 0.05 M21.41 43.14 C29.76 29.97, 35.78 23.19, 51.76 -2.24 M19.41 38.43 C26.11 28.25, 37.37 19.81, 54.62 -0.56 M21.84 41.92 C31.53 32.47, 45.83 21.98, 57.66 0.2 M24.61 39.69 C36.37 25.6, 48.83 8.92, 56.33 -0.87 M25.69 41.17 C43.57 24.37, 52.52 12.26, 62.57 -1.1 M29.28 38.81 C34.58 31.24, 43.71 23.55, 65.78 1.06 M36.76 41.99 C42.89 25.3, 60.45 16.52, 69.89 -1.28 M36.05 37.42 C48.06 27.66, 58.5 14.6, 69.51 0.35 M40.86 37.33 C50.71 26.48, 61.69 15.76, 70.64 -4.06 M38.01 38.88 C50.04 27.67, 58.6 16.09, 74.61 0.03 M44.42 42.55 C60.12 24.61, 70.94 10.68, 75.6 0.91 M44.28 38.88 C58.48 23.63, 68.36 11.19, 77.74 -0.35 M50.61 38.11 C58.33 26.83, 63.02 17.96, 81.89 -3.34 M49.08 38.2 C60.87 25.76, 76.38 11.04, 86.73 -1.98 M57.97 40.13 C62.38 32.67, 74 23.52, 89.15 1.56 M57.28 37.34 C67.26 21.99, 80.87 7.53, 89.65 1.91 M60.55 43.07 C67.56 26.44, 80.55 14.63, 98.13 -4.1 M61.49 41.28 C68.76 26.96, 77.89 18.34, 96.31 0.68 M70.5 42.32 C80.4 26.29, 85.95 15.7, 102.84 0.56 M67.59 38.08 C72.8 29.89, 80.74 20.12, 99.4 -0.98 M70.23 40.85 C76.88 27.45, 84.73 15.56, 105.14 3.57 M71.8 39.63 C80.91 27.66, 88.12 17.89, 108.02 -0.4 M75.01 39.78 C89.79 25.25, 106.93 9.52, 114.9 -1.17 M78.26 40.32 C89.21 28.17, 99.83 16.67, 112.71 -0.19 M85.13 37.11 C91.94 32.24, 98.4 23.89, 115.96 1.39 M84.08 37.71 C95.43 24.39, 108.93 9.12, 114.43 -0.89 M84.47 42.22 C102.92 21.14, 111.06 6.05, 125.52 2.37 M88.9 39.25 C99.14 25.34, 109.6 13.12, 120.81 0.08 M96.67 42.61 C105.97 24.8, 119.23 12.91, 129.56 -0.14 M91.95 38.95 C104.98 27.51, 116.3 15.39, 128.59 -0.75 M95.76 42.42 C110.39 22.24, 126.09 10.18, 132.8 2.25 M97.62 40.05 C111.02 23.46, 127.86 8.3, 134.46 0.6 M102.24 37.15 C107.65 28.3, 117.73 20.18, 138.85 -1.15 M104.53 39.75 C112.31 28.43, 125.55 13.2, 138.13 2.26 M109.73 36.22 C124.69 21.78, 132.09 10.51, 144.79 2.57 M107.08 39.84 C119.45 24.49, 131.34 13.74, 141.95 1.14 M117.11 37.62 C119 33.58, 129.28 16.19, 145.36 -3.49 M112.5 39.47 C127.42 23.69, 141.21 10.92, 149.87 -0.36 M118.47 43.27 C132.41 24.79, 135.97 18.25, 151.49 0.54 M117.8 38.49 C132.37 27.2, 142.93 10.94, 155.11 -1.62 M122.53 37.93 C131.09 35.21, 135.05 25.02, 157.29 8.08 M126.07 38.45 C133.8 26.57, 145.68 14.9, 153.89 4.87 M128.02 36.04 C136.32 32.93, 141.38 20.31, 150.32 10.47 M128.83 41.55 C138.93 30.44, 146.76 19.63, 152.8 12.1 M133.67 37.1 C143.75 30.24, 148.75 23.35, 156.03 17.84 M136.96 40.01 C143.02 29.75, 150.92 23.82, 152.07 19.36 M142.35 36.31 C144.18 35.03, 146.62 33.76, 156.97 24.35 M139.74 38.83 C144.23 37.04, 148.2 32.72, 153.76 23.62 M146.97 41.67 C149.11 37.77, 151.02 31.64, 155.23 30.8 M145.04 40.01 C148.11 37.37, 148.52 35.04, 152.77 30.42 M151.55 39.05 C151.28 39.14, 151.72 38.91, 154.16 36.01 M151.01 39.68 C151.55 39.07, 152.13 37.65, 153.58 36.41" stroke="#ffc9c9" stroke-width="0.5" fill="none"></path><path d="M0.5 -3.6 C47.85 2.31, 94.01 -3.1, 154.05 2.37 M153.68 -1.27 C154.5 11.01, 149.77 19.75, 150.01 42.2 M155.23 43.24 C99.54 39.66, 41.04 36.98, 3.47 36.18 M0.13 37.51 C-0.18 26.8, -2.71 18.82, 2.69 -0.27" stroke="#1e1e1e" stroke-width="1.5" fill="none" stroke-dasharray="8 9"></path></g><g transform="translate(400.9923151205485 99.024172032087) rotate(0 42.1875 9.600000000000023)"><text x="42.1875" y="0" font-family="Cascadia, Segoe UI Emoji" font-size="16px" fill="#1e1e1e" text-anchor="middle" style="white-space: pre;" direction="ltr" dominant-baseline="text-before-edge">service B</text></g><g stroke-linecap="round"><g transform="translate(239.08527166351723 90.54310457332554) rotate(0 60.35181509081507 -3.0278355829432826)"><path d="M-2.04 0.75 C31.08 -0.5, 71.16 -5.11, 117.85 -2.38" stroke="#2f9e44" stroke-width="1.5" fill="none" stroke-dasharray="8 9"></path></g><g transform="translate(239.08527166351723 90.54310457332554) rotate(0 60.35181509081507 -3.0278355829432826)"><path d="M93.18 6.1 C99.38 4.72, 109.08 0.99, 116.42 -0.54" stroke="#2f9e44" stroke-width="1.5" fill="none"></path></g><g transform="translate(239.08527166351723 90.54310457332554) rotate(0 60.35181509081507 -3.0278355829432826)"><path d="M93.5 -11 C99.63 -7.55, 109.23 -6.47, 116.42 -0.54" stroke="#2f9e44" stroke-width="1.5" fill="none"></path></g></g><mask></mask><g stroke-linecap="round"><g transform="translate(350.93015081390786 120.48639191230302) rotate(0 -55.81693267822265 2.4271034287884845)"><path d="M2.45 -1.56 C-28.02 2.82, -51.71 3.19, -113.7 1.53" stroke="#e03131" stroke-width="1.5" fill="none" stroke-dasharray="8 9"></path></g><g transform="translate(350.93015081390786 120.48639191230302) rotate(0 -55.81693267822265 2.4271034287884845)"><path d="M-88.82 -7.35 C-96.03 -3.48, -99.88 -1.88, -114.73 -0.13" stroke="#e03131" stroke-width="1.5" fill="none"></path></g><g transform="translate(350.93015081390786 120.48639191230302) rotate(0 -55.81693267822265 2.4271034287884845)"><path d="M-89.15 9.75 C-96.43 9.37, -100.2 6.71, -114.73 -0.13" stroke="#e03131" stroke-width="1.5" fill="none"></path></g></g><mask></mask><g transform="translate(248.08911687836098 66.90572720786827) rotate(0 32.8125 9.600000000000023)"><text x="32.8125" y="0" font-family="Cascadia, Segoe UI Emoji" font-size="16px" fill="#1e1e1e" text-anchor="middle" style="white-space: pre;" direction="ltr" dominant-baseline="text-before-edge">request</text></g><g transform="translate(278.9295709799235 124.13507291099336) rotate(0 37.5 9.600000000000023)"><text x="37.5" y="0" font-family="Cascadia, Segoe UI Emoji" font-size="16px" fill="#1e1e1e" text-anchor="middle" style="white-space: pre;" direction="ltr" dominant-baseline="text-before-edge">response</text></g><g stroke-linecap="round" transform="translate(51.75696355804848 42.45220547935264) rotate(0 262.31549072265625 62.395111083984375)"><path d="M0.55 -1.34 C165.32 0.37, 329.34 -0.52, 524.29 -0.66 M525.7 0.71 C521.83 52.59, 522.74 100.84, 524.7 127.66 M525.31 124.85 C358.31 125, 193.17 124.88, 0.16 125.1 M2.7 128.54 C-3.66 80.39, 4.01 44.77, 0.03 -2.66" stroke="#1e1e1e" stroke-width="1.5" fill="none" stroke-dasharray="8 9"></path></g><g stroke-linecap="round"><g transform="translate(634.0503318750283 115.1526212502772) rotate(0 -24.411149490521098 4.197844507378022)"><path d="M-0.26 -0.76 C-14.79 3.82, -34.76 7.22, -50.47 7.57 M0.19 -0.17 C-17.84 3.37, -34.93 7.08, -48.81 8.88" stroke="#2f9e44" stroke-width="1" fill="none"></path></g><g transform="translate(634.0503318750283 115.1526212502772) rotate(0 -24.411149490521098 4.197844507378022)"><path d="M-27.39 -3.85 C-32.64 2.17, -43.36 6.79, -50.46 8.06 M-26.94 -3.25 C-35.04 1.41, -42.2 6.43, -48.8 9.37" stroke="#2f9e44" stroke-width="1" fill="none"></path></g><g transform="translate(634.0503318750283 115.1526212502772) rotate(0 -24.411149490521098 4.197844507378022)"><path d="M-24.77 12.89 C-31.06 13.18, -42.68 12.1, -50.46 8.06 M-24.32 13.49 C-33.42 12.05, -41.54 10.94, -48.8 9.37" stroke="#2f9e44" stroke-width="1" fill="none"></path></g></g><mask></mask><g stroke-linecap="round" transform="translate(622.1055963705485 54.63659268638389) rotate(0 84.255859375 34.5)"><path d="M143.11 9.96 C152.8 13, 160.35 16.71, 164.68 21.54 C169.01 26.37, 171.38 33.32, 169.08 38.93 C166.78 44.54, 159.08 51, 150.88 55.2 C142.67 59.41, 131.32 61.66, 119.85 64.18 C108.38 66.69, 95 70.28, 82.06 70.28 C69.11 70.28, 53.96 67.23, 42.17 64.18 C30.38 61.13, 18.18 56.32, 11.32 51.98 C4.46 47.63, 1.65 43.14, 1.02 38.09 C0.39 33.04, 2.52 26.87, 7.55 21.67 C12.59 16.48, 21.38 10.66, 31.24 6.89 C41.1 3.13, 53.9 -0.29, 66.7 -0.89 C79.51 -1.5, 93.67 0.68, 108.06 3.24 C122.44 5.8, 144.13 11.23, 153 14.47 C161.87 17.7, 161.96 21.91, 161.29 22.63 M38.3 6.64 C48.11 4.11, 66.5 3.06, 79.31 2.25 C92.11 1.44, 103.26 -0.22, 115.13 1.79 C127.01 3.8, 142.1 9.82, 150.57 14.32 C159.04 18.82, 163.48 24.27, 165.96 28.8 C168.44 33.32, 169.2 36.84, 165.47 41.48 C161.74 46.11, 152.23 52.48, 143.58 56.6 C134.94 60.71, 125.5 64.17, 113.6 66.17 C101.7 68.17, 85.75 69.61, 72.16 68.6 C58.58 67.6, 42.48 63.77, 32.07 60.12 C21.67 56.46, 15.45 50.93, 9.76 46.68 C4.07 42.42, -2.75 39.4, -2.08 34.56 C-1.4 29.72, 7.24 22.83, 13.82 17.62 C20.41 12.41, 32.7 5.32, 37.43 3.31 C42.16 1.29, 41.35 5.15, 42.22 5.51" stroke="#2f9e44" stroke-width="1" fill="none"></path></g><g transform="translate(687.5335662267859 79.64140873544795) rotate(0 18.75 9.600000000000023)"><text x="18.75" y="0" font-family="Cascadia, Segoe UI Emoji" font-size="16px" fill="#2f9e44" text-anchor="middle" style="white-space: pre;" direction="ltr" dominant-baseline="text-before-edge">sync</text></g><g stroke-linecap="round" transform="translate(326.53854925140786 264.1493337752511) rotate(0 86.59963989257812 21.976577758789062)"><path d="M0 0 C0 0, 0 0, 0 0 M0 0 C0 0, 0 0, 0 0 M-1.38 7.16 C0.66 4.04, 2.35 3.39, 6.23 -0.06 M0.48 6.95 C2.62 3.71, 3.14 2.12, 5.49 1.07 M1.04 9.16 C3.8 8.94, 6.53 3.79, 8.2 1.09 M-0.27 11.63 C3.92 10.12, 4.79 4.3, 10.27 1.19 M-1.35 17.74 C4.74 15.39, 10.84 12.55, 13.4 0.2 M-1.58 18.21 C4.8 12.92, 10.31 5.67, 14.45 -1.63 M-2.85 20.55 C12.56 10.56, 20.68 1.61, 21.56 0.23 M-1.47 24.97 C7.45 15.79, 12.73 8.74, 22.5 0.51 M0.28 27.71 C5.36 23.3, 11.63 19.99, 29.17 -3.21 M1.98 30.65 C8.79 17.85, 20.39 7.93, 27.39 0.17 M0.19 36.7 C9 22.49, 19 15.94, 32.29 3.42 M1.51 36.78 C10.53 24.6, 16.82 16.95, 31.76 0.37 M0.38 43.23 C6.02 32.46, 19.83 17.85, 33.26 -0.68 M1.29 42.18 C9.87 32.84, 20.96 20.12, 35.23 -0.76 M6.24 44.37 C16.96 29.01, 27.13 10.02, 38.65 -3.35 M3.59 43 C18.72 29.37, 32.69 11.14, 42.34 0.3 M11.78 46.7 C15.77 34.89, 29.61 27.46, 50.58 3.97 M9.53 43.82 C16.69 34.57, 23.57 24.66, 46.05 0.82 M14.91 44.69 C28.38 27.8, 39.12 17.49, 56.6 -2.45 M14.44 44.97 C26.6 28.51, 42.7 12.29, 51.58 -1.94 M23.27 40.05 C29.88 34.79, 41.82 19.64, 61.08 -3.16 M19.78 44.76 C30.37 33.41, 43.54 17.97, 59.93 1.66 M28.35 46.59 C33.17 33.38, 40.78 22.5, 67.11 3.72 M23.23 45.38 C39.56 26.82, 49.36 12.64, 63.78 -0.09 M27.3 45.63 C35.77 34.32, 46.77 24.39, 67.8 -2.01 M30.66 43.15 C42.87 27.87, 54.41 15.32, 66.92 0.07 M38.35 45.37 C50.93 27.51, 56.93 13.45, 76.24 -3.34 M35.6 44.89 C51.1 26.61, 65.41 8.15, 76.22 -1.32 M42.67 44.22 C52.71 32.91, 67.24 17.58, 76.83 1.4 M43.08 42.19 C54.97 27.68, 67.76 16.7, 81.02 1.87 M47.75 42.25 C56.77 26.81, 68.54 16.12, 87.13 1.83 M45.19 43.72 C54.24 35.78, 63.67 25.77, 85.13 -0.31 M53.26 44.51 C58.85 32.96, 68 22.37, 93.31 3 M52.91 45.58 C62.48 33.69, 72.46 19.43, 90.21 -1.58 M58.45 40.43 C67.19 26.78, 77.44 13.68, 95.96 -3.36 M55.61 43.59 C70.18 28.78, 84.15 15.43, 95.73 -1.16 M60 47.16 C74.28 27.69, 88.35 16.11, 101.48 -3.35 M60.97 43.59 C74.85 29.04, 88.61 16.19, 102.43 0.6 M67.41 41 C76.79 30.38, 87.73 21.5, 103.97 2.4 M66.42 45.77 C79.58 29.05, 91.61 16.14, 108.21 0.51 M76.88 40.73 C81.13 35.32, 97.12 22.33, 108.59 2.15 M75.08 42.98 C81.36 33.09, 91.13 23.6, 111.61 0.85 M78.67 47.02 C88.79 36.55, 99.7 22.49, 112.81 1.14 M79.18 45.05 C90.39 27.06, 105.15 11.59, 115.06 0.41 M86.97 45.75 C91.01 37.48, 101.2 23.33, 125.01 -2.76 M84.01 45.07 C92.6 33.97, 101.09 22.65, 123.62 -0.9 M91.31 43.47 C102.37 27.91, 117.85 14.67, 123.17 0.56 M87.38 43.76 C97.55 32.87, 108.12 21.51, 125.7 0.49 M94.4 46.68 C104.84 33.6, 111.12 22.05, 136.12 1.59 M95.51 43.71 C106.02 29.95, 117.42 16.18, 134.32 0.84 M95.5 41.28 C111.91 32.26, 122.23 15.54, 134.84 2.56 M98.51 45.76 C108.7 32.66, 115.28 25.07, 136.57 -0.5 M104.33 43.91 C119.87 31.41, 127.86 12.19, 146.39 0.81 M106.29 43.26 C118.57 30.9, 128.53 16.46, 143.54 -0.9 M108.43 41.32 C122.73 37.35, 127.04 24.75, 145.29 4.21 M112.01 42.43 C124.42 27.73, 138.82 12.67, 147.73 -0.03 M118.37 42.52 C124.92 29.6, 134.51 20.99, 151.36 -1.54 M115.37 45.38 C122.08 33.65, 131.7 24.03, 153.05 0.4 M122.4 46.38 C134.59 25.35, 144.6 15.82, 161.11 2.54 M121.3 42.7 C136.99 27.39, 147.51 12.3, 160.2 -1.03 M125.14 45.28 C140.91 28.14, 146.69 17.81, 165.61 -3.97 M124.71 44.01 C137.07 33.55, 146.14 19.45, 164.62 -1.17 M132.74 41.2 C144.39 29.54, 153.77 24.33, 169.9 -1.49 M131.76 43.02 C145.47 30.06, 156.07 15.13, 169.97 2.08 M140.34 45.14 C145.34 33.17, 159.19 21.84, 176.83 -0.81 M137.28 43.86 C146 31.67, 155.66 17.07, 172.02 0.26 M141.86 44.45 C155.43 29.27, 163.44 19.19, 169.79 8.54 M142.74 45.37 C150.28 37.94, 155.66 30.58, 175.44 8.98 M149.43 42.25 C159.25 34.8, 169.16 20.14, 171.18 16.86 M145.66 43.43 C153.86 37.51, 159.45 29.68, 172.37 15.38 M155.22 40.75 C155.45 41.38, 158.46 35.85, 173.16 18.46 M153.57 43.26 C159.48 34.41, 167.23 24.46, 175.18 21.3 M158.89 40.69 C159.45 36.77, 167.91 32.14, 172.95 26.54 M157.42 45.76 C162.64 39.21, 166.61 34.61, 171.88 27.05 M161.83 41.45 C163.44 37.79, 171.89 33.96, 170.84 30.08 M161.97 43.78 C164.39 41.69, 168.04 39.8, 173.3 33.98 M168.26 44.33 C169.83 44.19, 170.18 40.96, 174.9 37.89 M168.58 44.3 C169.74 42.25, 170.75 41.69, 172.97 38.7" stroke="#a5d8ff" stroke-width="0.5" fill="none"></path><path d="M-3.9 2.04 C43.47 -2.41, 79.74 0.35, 175.39 -1.59 M170.82 -2.01 C174.51 11.57, 176.48 30.15, 171.12 40.73 M171.81 42.01 C105.68 37.79, 39.68 39.23, -3.86 40.1 M-2.25 43.57 C-2.26 37.54, -3.2 21.24, 0.12 -3.42" stroke="#1e1e1e" stroke-width="1.5" fill="none" stroke-dasharray="8 9"></path></g><g transform="translate(370.950689143986 276.5259115340401) rotate(0 42.1875 9.599999999999994)"><text x="42.1875" y="0" font-family="Cascadia, Segoe UI Emoji" font-size="16px" fill="#1e1e1e" text-anchor="middle" style="white-space: pre;" direction="ltr" dominant-baseline="text-before-edge">service C</text></g><g transform="translate(509.9837701986735 331.7496358992746) rotate(0 60.9375 9.599999999999994)"><text x="60.9375" y="0" font-family="Cascadia, Segoe UI Emoji" font-size="16px" fill="#1e1e1e" text-anchor="middle" style="white-space: pre;" direction="ltr" dominant-baseline="text-before-edge">submit result</text></g><g stroke-linecap="round" transform="translate(329.62351018890786 384.3019521834542) rotate(0 86.59963989257812 21.976577758789062)"><path d="M0 0 C0 0, 0 0, 0 0 M0 0 C0 0, 0 0, 0 0 M-0.49 7.52 C1.02 5.15, 4.15 0.07, 6.25 1.34 M0.04 5.64 C1.21 4.52, 3.29 2.39, 4.65 0.41 M1.93 10.89 C5.72 11.18, 2.54 3.49, 8.48 0.54 M-0.23 12.08 C4.94 9.02, 7.42 3.11, 10.2 1.25 M0.33 17.5 C3.07 13.99, 9.64 11.61, 15.51 1.59 M-0.9 19.59 C5.34 11.14, 11.47 4.2, 17.53 -0.81 M1.96 23.33 C6.09 19.07, 19.53 6.23, 18.32 -2.69 M0.24 25.59 C4.64 17.84, 10.09 14.37, 19.29 -1.4 M-0.45 33.98 C4.88 23.71, 14.72 8.98, 23.67 1.71 M-0.67 31.05 C5.44 22.57, 11.11 14.46, 25.8 1.62 M2.76 39.13 C7.24 24.23, 18.53 12.04, 33.18 1.31 M-1.68 36.74 C7.32 28.47, 15.27 20.49, 30.64 1.31 M-2.03 43.17 C7.37 29.55, 18.66 21.67, 34.99 1.99 M-0.82 42.18 C13.07 28.37, 25.54 12.58, 35.6 -1.33 M3.65 47.52 C11.77 36.28, 28.96 19.19, 42.34 3.53 M4.19 46.04 C19.81 28.24, 31.55 12.91, 44.27 1.33 M9.85 46.09 C23.73 27.68, 29.26 21.72, 45.75 -1.7 M10.36 45.67 C17.75 37.04, 23.42 25.27, 47.09 0.22 M18.16 46.85 C28.67 23.73, 43.29 6.58, 51.59 1.85 M14.36 44.72 C29.2 27.68, 44.72 11.65, 54.89 0.28 M16.35 46.45 C32.58 29.04, 47.47 15.94, 58.21 3.57 M22.07 43.81 C33.02 31.7, 42.94 14.58, 59.98 1.11 M25.2 46.36 C33.71 36.63, 45.69 20.31, 62.61 -2.75 M24.35 42.77 C32.05 36.35, 41.05 27.5, 65.7 -0.29 M33.1 43.48 C43.81 25.98, 56.55 9.96, 68.53 3.79 M30.58 43.3 C41.01 30.1, 54.56 14.82, 67.5 -0.86 M36.2 44.8 C51.24 28.72, 60.93 13.68, 77.07 -2.24 M33.76 45.64 C44.93 32.69, 53.72 22.84, 74.46 -0.82 M45.01 41.96 C54.08 24.22, 71.07 9.85, 78.83 2.04 M40.02 43.3 C49.55 35.7, 56.15 26.09, 78.41 1.08 M44.53 41.97 C58.21 28.66, 74.26 18.88, 84.53 -1.53 M45.73 43.73 C60.8 26.78, 73.82 12.8, 83.44 -1.81 M48.89 41.73 C64.02 29.43, 71.11 21.43, 93.15 -1.57 M51.04 42.96 C62.98 30.74, 72.44 19.2, 91.01 0.68 M53.48 42.74 C70.91 29.35, 81.1 20.26, 98.53 1.52 M56.93 42.39 C74.59 26.63, 87.55 10.22, 97.46 -1.78 M65.53 41.68 C73.59 33.23, 88.14 13.57, 97.49 2.15 M62.82 43.38 C73.69 30.39, 84.35 17.2, 99.12 0.66 M64.29 45.06 C76.75 31, 86.83 17.83, 104.5 -3.85 M67.58 43.98 C76.84 33.21, 85.46 23.24, 105.85 0.71 M71.63 43.8 C89.84 30.96, 98.67 15.44, 111.77 3.44 M75.1 45.62 C83.07 32.57, 92.11 25.88, 110.11 -1.32 M80.14 43.91 C88.56 29.01, 101.37 12.77, 119.2 3.37 M79.39 45.8 C86.66 33.33, 98.87 23.11, 115.84 1.85 M83.82 41.09 C93.17 26.38, 105.46 19.25, 121.84 1.61 M82.1 44.73 C93.29 33.71, 103.31 21.82, 122.86 1.41 M86.14 43.36 C98.37 37.26, 105.69 25.21, 125.26 -2.97 M89.63 46.11 C104.46 26.55, 114.31 10.4, 125.15 -0.51 M90.69 45.67 C108.19 26.24, 124.17 10.47, 131.52 1.04 M94.62 43.72 C109.9 26.71, 120.43 12.27, 133.79 -1.54 M101.33 44.54 C116.83 29.37, 124.97 15.02, 135.3 0.27 M101.1 42.17 C111.4 30.59, 123.99 15.96, 136.04 -0.25 M104.77 44.67 C115.84 31.21, 124.52 20.66, 142.54 -0.84 M105.97 43.57 C118.38 29.22, 132.83 10.3, 142.86 0.42 M110.71 41.61 C121.2 32.21, 127.64 22.57, 150.52 -1.43 M108.12 44.19 C120.87 29.22, 132.73 18.19, 147.99 -0.05 M117.84 45.07 C121.68 33.73, 133.32 22.48, 150.56 -1.54 M113.33 45.96 C125.86 31.88, 138.49 14.43, 155.54 0.85 M117.2 41.84 C131.56 32.46, 134.74 26.65, 156.07 0.46 M122.56 45.35 C129.17 35.65, 137.48 24.59, 159.01 -0.62 M123.62 42.65 C137.67 31.69, 148.64 13.95, 165.21 2.51 M126.38 44.33 C132.7 36.08, 142.83 23.79, 164.86 -1.74 M129.67 45.53 C137.14 36.77, 152.08 27.96, 173.03 1.51 M131.8 43.8 C144.65 27.74, 159.53 9.05, 167.61 1.31 M133.78 46.48 C149.15 30.54, 159.18 16.72, 172.07 -1.81 M137.38 46.29 C151.68 29.48, 162.3 15.45, 171.38 0.42 M142.9 42.05 C146.51 36.72, 158.09 26.93, 175.85 3.94 M140.76 44.65 C153.82 32.36, 166.36 19.11, 172.29 6.5 M144.59 47.98 C158.63 36.33, 165.46 25.09, 174.07 10.73 M145.76 44.71 C153.28 38.85, 158.83 30.5, 174.63 13.34 M149.65 45.84 C154.22 40.83, 166.57 31.65, 176.12 18.45 M153.89 42 C157.24 37.5, 164.25 30.76, 173.29 21.13 M156.25 41.62 C163.76 34.83, 163.3 37.19, 175.14 29.08 M159.48 44.41 C161.3 38.87, 163.24 36.89, 174.74 24.63 M161.25 44.26 C167.41 42.14, 169.34 37.59, 170.78 30.66 M164.7 44.64 C166.21 41.02, 168.05 36.91, 173.77 32.58 M168.52 44.51 C168.41 43.41, 172.63 39.49, 174.77 37.73 M168.57 44.21 C170.25 42.56, 171.78 40.96, 174.04 37.6" stroke="#a5d8ff" stroke-width="0.5" fill="none"></path><path d="M-3.18 -3.72 C60.61 -4.54, 121.63 -2.77, 172.99 3.63 M175.18 1.66 C174.48 6.9, 176.41 21.11, 176.05 45.47 M173.43 47.22 C119.93 39.82, 74.4 43.64, -2.41 46.72 M-1.96 44.83 C-3 31.47, 4.55 18.18, -1.32 0.35" stroke="#1e1e1e" stroke-width="1.5" fill="none" stroke-dasharray="8 9"></path></g><g transform="translate(374.035650081486 396.67852994224324) rotate(0 42.1875 9.599999999999994)"><text x="42.1875" y="0" font-family="Cascadia, Segoe UI Emoji" font-size="16px" fill="#1e1e1e" text-anchor="middle" style="white-space: pre;" direction="ltr" dominant-baseline="text-before-edge">service D</text></g><g stroke-linecap="round"><g transform="translate(422.55380591085157 134.96664029380577) rotate(0 1.526395711147785 60.42382812499994)"><path d="M3.63 2.19 C3.79 31.53, 3.87 52.92, 1.62 117.65" stroke="#2f9e44" stroke-width="1.5" fill="none" stroke-dasharray="8 9"></path></g><g transform="translate(422.55380591085157 134.96664029380577) rotate(0 1.526395711147785 60.42382812499994)"><path d="M-4.4 95 C-2.63 101.01, -1.11 103.09, 0.9 116.04" stroke="#2f9e44" stroke-width="1.5" fill="none"></path></g><g transform="translate(422.55380591085157 134.96664029380577) rotate(0 1.526395711147785 60.42382812499994)"><path d="M12.7 95.52 C10.45 101.54, 7.95 103.5, 0.9 116.04" stroke="#2f9e44" stroke-width="1.5" fill="none"></path></g></g><mask></mask><g transform="translate(382.355230159611 183.95083829185273) rotate(0 42.1875 9.600000000000023)"><text x="42.1875" y="0" font-family="Cascadia, Segoe UI Emoji" font-size="16px" fill="#1e1e1e" text-anchor="middle" style="white-space: pre;" direction="ltr" dominant-baseline="text-before-edge">send task</text></g><g stroke-linecap="round" transform="translate(332.5255487631266 500.11683255454795) rotate(0 86.59963989257812 21.976577758789062)"><path d="M0 0 C0 0, 0 0, 0 0 M0 0 C0 0, 0 0, 0 0 M0.9 6.76 C-0.06 3.67, 2.29 2.14, 3.92 1.36 M-0.21 6.52 C2.37 3.73, 2.91 1.67, 5.09 0.29 M-2.49 9.51 C4.72 8.13, 1.4 9.79, 9.6 -0.97 M1.51 13.43 C4.48 7.25, 8.66 3.66, 12.03 -0.04 M3.68 19.82 C5.47 15.34, 11.91 5.55, 17.82 3.31 M0.57 17.06 C3.27 14.73, 8.23 10.6, 13.82 -0.53 M-1.86 24.96 C9.05 16.18, 11.38 13.16, 20.36 0.57 M0.69 25.16 C8.37 16.22, 13.3 10.33, 22.1 1.52 M1.63 30.61 C5.43 20.45, 15.84 9.51, 28.33 -2.16 M-1.85 28.6 C9.75 22.17, 15.91 10.23, 27.83 0.98 M-4.13 35.84 C9.52 24.3, 26.11 9.78, 30.46 0.05 M-0.9 37.18 C13.8 23.07, 24.5 8.24, 33.31 -0.56 M2.36 39.45 C14.48 32.29, 19.32 17.22, 32.96 0.49 M-1.79 42.98 C9.12 30.66, 20.96 15.55, 37.54 1.97 M1.66 46.27 C16.65 25.73, 32.96 11.29, 42.2 3.34 M2.97 44.71 C12.22 31.33, 23.77 19.52, 41.81 -0.27 M8.9 46.62 C17.48 32.51, 25.07 19.1, 48.76 -1.61 M8.09 43.26 C22.76 30.41, 35.95 11.94, 46.75 -1.31 M17.77 45.87 C28.1 29.27, 33.16 17.42, 50.11 -0.4 M16.43 45.34 C26.28 31.41, 39.06 14.7, 53.9 -1.65 M23.15 47.08 C37.85 31, 46.22 12.41, 58.71 3.73 M20.6 42.12 C28.57 30.59, 42.93 19.69, 58.77 0.36 M27.89 43.13 C36.51 29.44, 50.59 16.45, 60.65 -2.98 M26.64 43.46 C38.72 32.93, 48.62 19.12, 64.42 -0.75 M33.49 47.31 C37.79 33.24, 42.41 26.21, 71.74 1.76 M31.65 44.62 C41.36 31.77, 52.72 21.25, 70.47 -0.86 M32.18 44.03 C49.56 24.47, 69.39 9.71, 72.2 2.91 M36.82 42.88 C51.02 28.31, 63.68 13.65, 74.74 0.36 M37.57 43.34 C48.9 33.72, 53.69 22.69, 78.72 2.77 M41 44.3 C48.41 33.49, 55.59 24.36, 78.24 0.2 M44.76 47.63 C61.12 26.36, 74.77 12.65, 87.1 3.58 M45.74 44.37 C58.99 30.23, 71.04 15.68, 86.78 -0.44 M52.97 42.24 C61.19 33.03, 72.37 18.61, 88.43 -1.85 M52.91 42.69 C65.75 27.96, 80.84 13.35, 92 -0.35 M57.68 42.07 C69.76 27.33, 83.41 8.89, 99.62 0.46 M57.69 43.68 C67.48 31.54, 75.14 20.66, 96.96 0.69 M65.21 42.19 C76.02 29.81, 83.82 24.98, 99.62 -3.67 M62.2 43.25 C73.73 27.94, 86.25 16.45, 101.19 -1.42 M68.92 40.52 C82.09 27.16, 95.46 7.74, 107.97 -2 M68.5 45.51 C75.41 33.36, 87.51 23.6, 106.26 -0.41 M71.75 44.39 C84.92 34.52, 95.52 21.37, 112.97 2.8 M72.21 45.43 C81.05 33.17, 91.9 24.03, 112.81 1.05 M78.42 45.23 C88.17 31.04, 105.34 13.01, 117.62 0.49 M79.53 45.55 C89 31.64, 103.64 13.48, 117.51 -1.21 M85.98 41.13 C95.28 36.24, 104.5 18.15, 119.08 0.13 M84.81 42.65 C91.06 32.53, 99.45 20.68, 121.36 0.07 M92.03 43.51 C97.81 36.16, 102.78 28.05, 123.98 -3 M87.66 44.46 C104.93 29.29, 119.35 9.69, 128.06 -1.45 M93.23 43.74 C107.96 32.82, 117.96 16.72, 134.5 -0.06 M94.42 44.29 C107.37 26.79, 121.99 12.35, 130.9 -0.35 M101.55 43.73 C111.3 30.89, 125.89 12.38, 136.41 1.96 M99.32 45.83 C113.18 30.83, 124.15 16.63, 135.82 -0.65 M102.77 46.62 C113.15 31.22, 130.16 15.73, 141.73 -1.1 M105.96 41.71 C118.42 27.59, 132.72 9.64, 144.99 0.75 M112.72 47.33 C123.93 27.83, 136.37 16.94, 144.86 0.07 M108.45 42.28 C119.45 31.87, 131.7 19.39, 147.87 0.88 M111.15 48 C127.42 29.02, 138.22 17.77, 157.19 -1.22 M116.25 42.98 C124.01 32.2, 135.15 21.3, 152.75 -0.71 M117.22 44.81 C131.64 35.6, 138.82 28, 155.22 -0.9 M122.55 45.34 C128.72 34.11, 140.56 21.49, 157.84 0.81 M124.83 42.9 C138.97 25.93, 155.7 15.59, 163.23 2.38 M126.6 43.88 C138.79 30.79, 149.33 17.09, 162.82 0.18 M128.65 43.71 C143.66 30.6, 157.53 15.32, 169.34 1.91 M132.62 43.55 C147.8 28.98, 163.38 9.98, 167.89 0.78 M136.22 47.66 C146.9 33.96, 152.41 22.12, 174.2 3.83 M136.88 42.43 C146.59 29.88, 160.17 18.3, 171.39 1.55 M138.57 40.68 C151.66 35.13, 162.15 28.38, 174.4 9.94 M143.22 44.4 C149.53 37.55, 155.84 28.99, 172.13 7.93 M146.35 44.93 C155.02 35.06, 168.74 24, 173.76 11.62 M146.15 45.86 C157.45 34.38, 163.46 23.1, 173.61 15.78 M152.47 41.38 C157.74 36.54, 163.44 30.66, 170.76 17.15 M154.41 44.35 C161.17 35.68, 166.69 28.3, 174.42 18.83 M160.18 44.44 C163.59 39.65, 163.88 36.33, 170.63 29.93 M158.01 45.35 C163.74 39.76, 167.33 33.8, 173.25 24.87 M162.14 41.4 C167.85 41.7, 169.17 38.96, 174.77 31.97 M163.67 43.1 C164.74 42.8, 166.53 39.8, 173.61 31.56 M167.59 45.32 C168.78 42.91, 171.89 40.45, 172.46 39.64 M167.58 44.97 C170.2 42.72, 170.65 40.92, 173.32 37.96" stroke="#a5d8ff" stroke-width="0.5" fill="none"></path><path d="M-2.94 1.97 C66.16 3.34, 131.62 -1.01, 177.09 0.49 M170.65 -3.8 C176.84 9.31, 169.7 25.33, 172.82 47.17 M173.01 44.88 C122.3 46.84, 75.34 43.76, 1 46.22 M0.82 46.55 C-1.01 31.77, 0.91 17.66, 2.08 2.01" stroke="#1e1e1e" stroke-width="1.5" fill="none" stroke-dasharray="8 9"></path></g><g transform="translate(376.93768865570473 512.493410313337) rotate(0 42.1875 9.599999999999994)"><text x="42.1875" y="0" font-family="Cascadia, Segoe UI Emoji" font-size="16px" fill="#1e1e1e" text-anchor="middle" style="white-space: pre;" direction="ltr" dominant-baseline="text-before-edge">service E</text></g><g stroke-linecap="round"><g transform="translate(427.4915826986735 315.1196554305245) rotate(0 -0.7091064453125 28.499755859375)"><path d="M-3.27 -2.31 C-1.16 17.81, -0.63 32.58, -2.99 60.38" stroke="#2f9e44" stroke-width="1.5" fill="none" stroke-dasharray="8 9"></path></g><g transform="translate(427.4915826986735 315.1196554305245) rotate(0 -0.7091064453125 28.499755859375)"><path d="M-11.69 35.24 C-8.15 44.06, -5.66 50.16, -3.78 62.07" stroke="#2f9e44" stroke-width="1.5" fill="none"></path></g><g transform="translate(427.4915826986735 315.1196554305245) rotate(0 -0.7091064453125 28.499755859375)"><path d="M5.38 36.32 C4.06 44.74, 1.67 50.53, -3.78 62.07" stroke="#2f9e44" stroke-width="1.5" fill="none"></path></g></g><mask></mask><g stroke-linecap="round"><g transform="translate(422.95038396820473 438.01876431724327) rotate(0 1.757232666015625 27.4132080078125)"><path d="M2.66 -3.35 C0.36 15.61, 2.03 24.9, 3.38 53.44" stroke="#2f9e44" stroke-width="1.5" fill="none" stroke-dasharray="8 9"></path></g><g transform="translate(422.95038396820473 438.01876431724327) rotate(0 1.757232666015625 27.4132080078125)"><path d="M-5.14 28.79 C-4.54 37.23, -1.86 40.86, 3.32 52.75" stroke="#2f9e44" stroke-width="1.5" fill="none"></path></g><g transform="translate(422.95038396820473 438.01876431724327) rotate(0 1.757232666015625 27.4132080078125)"><path d="M11.94 27.83 C8.64 36.57, 7.43 40.42, 3.32 52.75" stroke="#2f9e44" stroke-width="1.5" fill="none"></path></g></g><mask></mask><g stroke-linecap="round"><g transform="translate(511.21672613537805 516.9636738053546) rotate(0 30.204139707428965 -196.7948617914501)"><path d="M1.24 1.34 C24.3 -69.53, 42.02 -128.98, 62.47 -174.89 M60.86 -178.95 C45.72 -238.1, 35.57 -293.09, 15.54 -395.23" stroke="#e03131" stroke-width="1.5" fill="none" stroke-dasharray="8 9"></path></g><g transform="translate(511.21672613537805 516.9636738053546) rotate(0 30.204139707428965 -196.7948617914501)"><path d="M29.07 -373.15 C25.36 -383.49, 18.37 -388.26, 16.57 -393.41" stroke="#e03131" stroke-width="1.5" fill="none"></path></g><g transform="translate(511.21672613537805 516.9636738053546) rotate(0 30.204139707428965 -196.7948617914501)"><path d="M12.28 -369.87 C14.74 -381.45, 13.92 -387.43, 16.57 -393.41" stroke="#e03131" stroke-width="1.5" fill="none"></path></g></g><mask></mask><g stroke-linecap="round" transform="translate(288.813237972111 223.00249844810264) rotate(0 190.86810302734375 176.8292694091797)"><path d="M0.24 1.59 C111.83 -0.66, 226.36 2.28, 383.98 -2.13 M383.75 -2.34 C383.87 132.92, 383.64 259.09, 379.38 356.22 M382.08 353.58 C268.06 348.77, 154.17 350.87, 0.34 351.97 M1.44 355.17 C-5.08 240.63, -2.08 125.47, -0.55 -0.28" stroke="#1e1e1e" stroke-width="1.5" fill="none" stroke-dasharray="8 9"></path></g><g stroke-linecap="round" transform="translate(63.00879461273598 286.56429654380577) rotate(0 84.25585937500001 34.5)"><path d="M137.7 6.16 C148.3 8.85, 157.42 16.74, 162.77 21.73 C168.11 26.72, 170.67 30.86, 169.77 36.09 C168.87 41.31, 164.25 48.42, 157.36 53.1 C150.48 57.78, 140.24 61.53, 128.45 64.16 C116.66 66.79, 99.74 68.63, 86.6 68.9 C73.46 69.16, 61.29 67.88, 49.61 65.76 C37.94 63.65, 24.69 60.76, 16.53 56.21 C8.37 51.67, 2.59 44.02, 0.65 38.47 C-1.28 32.92, 1 27.78, 4.91 22.91 C8.82 18.04, 15.24 12.8, 24.11 9.25 C32.98 5.69, 45.46 2.85, 58.12 1.56 C70.78 0.28, 82.8 -2.03, 100.05 1.53 C117.31 5.09, 150.69 16.08, 161.66 22.94 C172.63 29.8, 167.09 42.38, 165.88 42.71 M30.24 9.47 C38.92 6.59, 55.9 3.59, 68.72 2.08 C81.54 0.57, 94.77 -0.94, 107.17 0.42 C119.57 1.77, 133.17 6.13, 143.12 10.21 C153.07 14.28, 163.03 19.97, 166.89 24.88 C170.75 29.78, 168.82 34.31, 166.27 39.61 C163.71 44.92, 159.83 52.64, 151.55 56.7 C143.28 60.77, 128.55 61.73, 116.59 63.98 C104.64 66.23, 92 70, 79.82 70.21 C67.63 70.42, 55.2 67.81, 43.49 65.22 C31.78 62.64, 17.05 59.32, 9.54 54.68 C2.04 50.04, -0.9 42.95, -1.55 37.39 C-2.2 31.83, -0.24 26.49, 5.64 21.31 C11.53 16.13, 29.15 8.65, 33.75 6.32 C38.36 3.98, 32.68 6.89, 33.26 7.32" stroke="#e03131" stroke-width="1" fill="none"></path></g><g transform="translate(123.74926446897334 311.5691125928698) rotate(0 23.4375 9.599999999999994)"><text x="23.4375" y="0" font-family="Cascadia, Segoe UI Emoji" font-size="16px" fill="#e03131" text-anchor="middle" style="white-space: pre;" direction="ltr" dominant-baseline="text-before-edge">defer</text></g><g stroke-linecap="round"><g transform="translate(202.77747137054848 358.36605435630577) rotate(0 34.09967041015625 18.85772705078125)"><path d="M1.92 3.25 C23.72 12.99, 55.62 28.75, 68.11 41.17 M-1.76 -1.74 C16.9 9.3, 35.7 21.9, 68.06 37.02" stroke="#e03131" stroke-width="1" fill="none"></path></g><g transform="translate(202.77747137054848 358.36605435630577) rotate(0 34.09967041015625 18.85772705078125)"><path d="M44.19 35.76 C51.22 34.47, 63.62 36.21, 68.01 38.75 M42.34 33.26 C49.3 34.46, 56.31 36.65, 67.99 36.67" stroke="#e03131" stroke-width="1" fill="none"></path></g><g transform="translate(202.77747137054848 358.36605435630577) rotate(0 34.09967041015625 18.85772705078125)"><path d="M51.85 20.47 C56.08 25.04, 65.53 32.66, 68.01 38.75 M50.01 17.97 C54.99 23.08, 60.02 29.2, 67.99 36.67" stroke="#e03131" stroke-width="1" fill="none"></path></g></g><mask></mask></svg>